:SAMPLES-PER-SECOND 30
:FULLY-SPECIFIED
:DEGREES
48
root  42.8311 38.859 -0.329799 175.855 86.778 178.465
RightUpLeg  -29.0075 -0.751337 0.383627
RightLeg  52.4169 11.3353 1.4852
RightFoot  4.01057 -0.156479 1.05362
RightToes  -6.98493e-010 -1.59028e-015 9.93923e-017
Spine  1.9015 -3.98109 -8.63654
Spine1  5.95613 -6.0428 4.35988
HEad  -8.84764 0.801448 3.43085
LeftShoulder1  9.93923e-017 0 1.22299e-017
LeftArm  12.4175 14.1873 -77.4725
LeftForeArm  -36.2689 -51.0632 31.8096
LeftHand  1.03904 7.44165 -2.64523
RightShoulder  1.98785e-016 -4.96962e-017 1.55301e-017
RightArm  53.4534 -66.8109 52.0465
RightForeArm  -40.2254 19.0119 -7.36046
RightHand  1.2842 -12.8583 -1.66068
LeftUpLeg  -0.177857 -0.945211 -4.45757
LeftLeg  18.6575 -12.863 2.78154
LeftFoot  -13.1749 -0.0426143 2.42971
LeftToes  -1.90082e-010 4.30011e-012 -7.87804e-012
49
root  44.6595 38.7266 -0.175121 173.992 86.0468 176.601
RightUpLeg  -30.1886 -0.979406 -0.0752766
RightLeg  42.1984 12.8527 2.72684
RightFoot  3.58221 -0.221679 1.51779
RightToes  -6.98493e-010 -1.59028e-015 9.93923e-017
Spine  1.89292 -4.8057 -9.65949
Spine1  5.74104 -6.85096 5.20863
HEad  -9.10958 1.56925 3.82214
LeftShoulder1  9.93923e-017 0 1.22299e-017
LeftArm  10.9905 7.89072 -75.5461
LeftForeArm  -39.7302 -55.2803 35.6653
LeftHand  1.07223 7.69402 -1.92363
RightShoulder  1.98785e-016 -4.96962e-017 1.55301e-017
RightArm  64.0561 -69.4876 37.2349
RightForeArm  -43.1306 19.3472 -8.94922
RightHand  1.22513 -12.448 -1.40064
LeftUpLeg  3.2894 0.189999 -3.49333
LeftLeg  17.8279 -14.6575 2.20117
LeftFoot  -14.8868 -0.0112851 2.58224
LeftToes  -1.90082e-010 4.30011e-012 -7.87804e-012
50
root  46.4718 38.6279 -0.055668 176.795 85.7361 178.851
RightUpLeg  -30.1687 -0.689917 -0.220572
RightLeg  28.4161 14.9566 3.21288
RightFoot  4.09091 -0.325896 2.16352
RightToes  -6.98493e-010 -1.59028e-015 9.93923e-017
Spine  1.07205 -5.67869 -9.47231
Spine1  5.98405 -7.5119 5.52257
HEad  -8.97 2.44329 4.22921
LeftShoulder1  9.93923e-017 0 1.22299e-017
LeftArm  9.13713 2.92882 -73.7291
LeftForeArm  -42.0975 -57.7232 38.3626
LeftHand  1.09284 7.80774 -0.854719
RightShoulder  1.98785e-016 -4.96962e-017 1.55301e-017
RightArm  68.6651 -70.119 25.3269
RightForeArm  -40.7 18.8799 -7.68989
RightHand  1.25708 -12.6209 -1.63497
LeftUpLeg  6.55374 0.85242 -2.2507
LeftLeg  15.935 -15.83 1.69535
LeftFoot  -15.4085 -0.01572 1.59765
LeftToes  -1.90082e-010 4.30011e-012 -7.87804e-012
51
root  48.2852 38.5513 0.0593008 -178.121 85.6354 -176.67
RightUpLeg  -28.5085 0.912781 -0.55365
RightLeg  12.3545 14.458 1.86512
RightFoot  3.74459 -0.458154 3.1149
RightToes  -6.98493e-010 -1.59028e-015 9.93923e-017
Spine  0.300104 -6.37751 -8.86313
Spine1  6.36124 -8.12459 5.88774
HEad  -8.6743 3.19702 4.5556
LeftShoulder1  9.93923e-017 0 1.22299e-017
LeftArm  7.19854 -0.284393 -72.3813
LeftForeArm  -42.8379 -58.8987 39.8796
LeftHand  1.09455 7.77017 0.357952
RightShoulder  1.98785e-016 -4.96962e-017 1.55301e-017
RightArm  68.168 -69.6393 18.3118
RightForeArm  -35.8961 17.8814 -5.12816
RightHand  1.36639 -13.1869 -2.42986
LeftUpLeg  9.66289 1.2366 -0.841209
LeftLeg  13.948 -16.6606 1.38897
LeftFoot  -14.4638 -0.0449334 -0.384777
LeftToes  -1.90082e-010 4.30011e-012 -7.87804e-012
52
root  50.2116 38.3871 0.231096 -176.39 85.5009 -175.245
RightUpLeg  -26.0699 3.39789 -1.37895
RightLeg  -0.284738 9.10246 0.614932
RightFoot  1.85147 -0.49393 3.76069
RightToes  -6.98493e-010 -1.59028e-015 9.93923e-017
Spine  -0.307815 -6.80042 -8.9509
Spine1  6.99923 -8.71048 6.70308
HEad  -8.60381 3.59168 4.65111
LeftShoulder1  9.93923e-017 0 1.22299e-017
LeftArm  5.46961 -1.66432 -71.8895
LeftForeArm  -42.7243 -59.2954 40.4661
LeftHand  1.07043 7.5697 1.52468
RightShoulder  1.98785e-016 -4.96962e-017 1.55301e-017
RightArm  64.4702 -68.9947 15.9132
RightForeArm  -31.3575 16.6755 -2.74739
RightHand  1.43989 -13.5437 -2.93465
LeftUpLeg  12.6328 1.09687 0.278654
LeftLeg  13.2391 -17.0959 1.27895
LeftFoot  -12.9694 -0.0312209 -2.16429
LeftToes  -1.90082e-010 4.30011e-012 -7.87804e-012
53
root  52.2624 38.1827 0.454994 -171.606 85.264 -170.853
RightUpLeg  -25.1449 3.90954 -0.582272
RightLeg  -3.59808 3.92418 0.450199
RightFoot  0.492809 -0.406706 3.42195
RightToes  -6.98493e-010 -1.59028e-015 9.93923e-017
Spine  -1.23502 -7.01819 -8.73234
Spine1  8.02697 -9.20753 7.79052
HEad  -8.75694 3.53524 4.41778
LeftShoulder1  9.93923e-017 0 1.22299e-017
LeftArm  4.04342 -1.05795 -72.4404
LeftForeArm  -42.2198 -59.1366 40.2922
LeftHand  1.04464 7.39442 2.08634
RightShoulder  1.98785e-016 -4.96962e-017 1.55301e-017
RightArm  59.4773 -68.8863 16.6866
RightForeArm  -28.1576 15.7333 -1.35503
RightHand  1.44834 -13.5838 -2.98855
LeftUpLeg  15.2196 -0.251422 1.47494
LeftLeg  13.3461 -16.4118 0.983097
LeftFoot  -10.9907 0.0606404 -4.3149
LeftToes  -1.90082e-010 4.30011e-012 -7.87804e-012
54
root  54.3931 37.966 0.69237 -157.044 84.7004 -156.903
RightUpLeg  -25.8122 4.61102 1.23432
RightLeg  0.580372 0.0915899 0.194666
RightFoot  2.76795 -0.363787 2.63368
RightToes  -6.98493e-010 -1.59028e-015 9.93923e-017
Spine  -2.10146 -7.10755 -6.78909
Spine1  8.72696 -9.48758 8.47246
HEad  -9.00833 3.29107 4.05934
LeftShoulder1  9.93923e-017 0 1.22299e-017
LeftArm  3.05553 1.58487 -73.8638
LeftForeArm  -41.1451 -58.3123 39.2504
LeftHand  1.03899 7.36152 1.96174
RightShoulder  1.98785e-016 -4.96962e-017 1.55301e-017
RightArm  53.8614 -69.3308 20.5607
RightForeArm  -26.8065 15.3506 -0.960631
RightHand  1.45158 -13.5962 -3.01507
LeftUpLeg  16.7478 -3.30165 3.46566
LeftLeg  14.8981 -13.9633 -0.11351
LeftFoot  -7.4463 0.414298 -8.0802
LeftToes  -1.90082e-010 4.30011e-012 -7.87804e-012
55
root  56.5268 37.6661 0.936376 -140.866 83.4656 -140.714
RightUpLeg  -26.6914 5.63167 3.85162
RightLeg  7.74785 -0.869134 -0.939274
RightFoot  7.19379 -0.243024 1.39377
RightToes  -6.98493e-010 -1.59028e-015 9.93923e-017
Spine  -1.6129 -7.07516 -3.71887
Spine1  8.28283 -9.40835 8.6592
HEad  -9.54736 3.29257 4.01294
LeftShoulder1  9.93923e-017 0 1.22299e-017
LeftArm  2.82834 5.69301 -75.9231
LeftForeArm  -39.1111 -56.2353 36.8047
LeftHand  1.02246 7.25833 1.96757
RightShoulder  1.98785e-016 -4.96962e-017 1.55301e-017
RightArm  44.6943 -69.4207 29.6638
RightForeArm  -25.9954 15.0871 -0.661911
RightHand  1.43989 -13.6443 -2.74707
LeftUpLeg  16.5536 -5.76649 6.71132
LeftLeg  20.3577 -11.8731 -1.62733
LeftFoot  -0.419143 1.26832 -11.1805
LeftToes  -1.90082e-010 4.30011e-012 -7.87804e-012
56
root  58.4514 37.3509 1.1808 -129.628 81.9524 -128.585
RightUpLeg  -27.0149 6.46502 6.99354
RightLeg  15.0127 0.179567 -2.3963
RightFoot  8.79405 0.181266 -0.971964
RightToes  -6.98493e-010 -1.59028e-015 9.93923e-017
Spine  0.633134 -6.80676 -0.839725
Spine1  7.42427 -9.02046 9.11297
HEad  -10.4053 3.55918 4.5399
LeftShoulder1  9.93923e-017 0 1.22299e-017
LeftArm  3.83414 10.1046 -78.5947
LeftForeArm  -35.921 -51.7161 32.37
LeftHand  0.933661 6.71839 2.60428
RightShoulder  1.98785e-016 -4.96962e-017 1.55301e-017
RightArm  29.2956 -67.7307 44.2567
RightForeArm  -22.9934 14.2344 0.315659
RightHand  1.37254 -13.589 -1.80093
LeftUpLeg  13.8958 -4.44582 10.8244
LeftLeg  30.0483 -12.7568 -1.74297
LeftFoot  10.4544 2.25191 -10.6031
LeftToes  -1.90082e-010 4.30011e-012 -7.87804e-012
57
root  60.1575 37.1275 1.42274 -125.052 80.7699 -122.934
RightUpLeg  -26.678 7.51556 9.42566
RightLeg  21.4073 0.0562639 -3.9975
RightFoot  5.92039 0.596343 -3.57045
RightToes  -6.98493e-010 -1.59028e-015 9.93923e-017
Spine  3.07845 -6.4464 0.928201
Spine1  7.06637 -8.47494 10.0262
HEad  -10.8865 3.59448 5.48558
LeftShoulder1  9.93923e-017 0 1.22299e-017
LeftArm  6.9224 13.9 -81.7023
LeftForeArm  -33.111 -43.8027 26.595
LeftHand  0.751888 5.66355 3.28039
RightShoulder  1.98785e-016 -4.96962e-017 1.55301e-017
RightArm  12.6998 -63.6586 59.6059
RightForeArm  -18.6107 13.2754 1.12706
RightHand  1.31889 -13.4642 -1.16554
LeftUpLeg  9.17907 -4.90146 12.9846
LeftLeg  41.2819 -11.2014 -0.211937
LeftFoot  19.8446 2.57478 -8.37822
LeftToes  -1.90082e-010 4.30011e-012 -7.87804e-012
58
root  61.8346 37.1658 1.64403 -125.638 80.2614 -122.944
RightUpLeg  -24.9187 8.28925 10.7635
RightLeg  24.8725 -1.04109 -5.31704
RightFoot  1.86246 0.661308 -4.99531
RightToes  -6.98493e-010 -1.59028e-015 9.93923e-017
Spine  4.19515 -6.04578 1.74243
Spine1  6.89915 -7.8475 10.4574
HEad  -10.2542 3.04397 6.47961
LeftShoulder1  9.93923e-017 0 1.22299e-017
LeftArm  14.782 17.1597 -84.669
LeftForeArm  -35.5541 -33.5119 21.3528
LeftHand  0.553944 4.49521 3.2514
RightShoulder  1.98785e-016 -4.96962e-017 1.55301e-017
RightArm  3.71507 -58.0821 71.8286
RightForeArm  -18.6004 14.0331 -0.0956634
RightHand  1.36585 -13.2923 -2.24109
LeftUpLeg  3.05585 -6.04992 13.172
LeftLeg  51.2535 -9.46672 2.79262
LeftFoot  22.3961 2.30744 -6.90242
LeftToes  -1.90082e-010 4.30011e-012 -7.87804e-012
59
root  63.6158 37.5283 1.81083 -127.964 80.3579 -125.107
RightUpLeg  -21.4817 8.53839 11.3876
RightLeg  24.8514 -1.65011 -5.62546
RightFoot  -0.90474 0.551579 -5.14185
RightToes  -6.98493e-010 -1.59028e-015 9.93923e-017
Spine  4.17526 -5.52462 2.43301
Spine1  6.39431 -7.02764 9.70313
HEad  -8.73134 2.05508 7.20296
LeftShoulder1  9.93923e-017 0 1.22299e-017
LeftArm  21.0205 20.4635 -86.568
LeftForeArm  -37.6052 -23.8123 13.9233
LeftHand  0.455417 3.75567 2.34435
RightShoulder  1.98785e-016 -4.96962e-017 1.55301e-017
RightArm  7.36957 -51.9916 80.5316
RightForeArm  -27.9869 17.0075 -5.06367
RightHand  1.45383 -12.8837 -4.54819
LeftUpLeg  -3.43784 -7.28563 12.0271
LeftLeg  58.4867 -9.13913 4.90227
LeftFoot  19.7351 1.64963 -5.33036
LeftToes  -1.90082e-010 4.30011e-012 -7.87804e-012
